<mxfile host="app.diagrams.net" agent="Mozilla/5.0 (Windows NT 10.0; Win64; x64) AppleWebKit/537.36 (KHTML, like Gecko) Chrome/126.0.0.0 Safari/537.36" version="26.2.12">
  <diagram name="第 1 页" id="P_OKSBpqpjbT7ZUcAPDN">
    <mxGraphModel dx="3260" dy="1409" grid="1" gridSize="10" guides="1" tooltips="1" connect="1" arrows="1" fold="1" page="1" pageScale="1" pageWidth="827" pageHeight="1169" math="0" shadow="0">
      <root>
        <mxCell id="0" />
        <mxCell id="1" parent="0" />
        <mxCell id="hAaRibH6YbzZ0h87aK_9-16" value="OTA固件升级过程" style="shape=umlFrame;whiteSpace=wrap;html=1;pointerEvents=0;sketch=0;strokeColor=default;align=center;verticalAlign=middle;fontFamily=Helvetica;fontSize=12;fontColor=default;fillColor=default;" parent="1" vertex="1">
          <mxGeometry x="-520" y="689" width="1300" height="450" as="geometry" />
        </mxCell>
        <mxCell id="hAaRibH6YbzZ0h87aK_9-1" value="APP" style="shape=umlLifeline;perimeter=lifelinePerimeter;whiteSpace=wrap;html=1;container=0;dropTarget=0;collapsible=0;recursiveResize=0;outlineConnect=0;portConstraint=eastwest;newEdgeStyle={&quot;edgeStyle&quot;:&quot;elbowEdgeStyle&quot;,&quot;elbow&quot;:&quot;vertical&quot;,&quot;curved&quot;:0,&quot;rounded&quot;:0};" parent="1" vertex="1">
          <mxGeometry x="-475" y="40" width="100" height="1120" as="geometry" />
        </mxCell>
        <mxCell id="hAaRibH6YbzZ0h87aK_9-71" value="" style="html=1;points=[];perimeter=orthogonalPerimeter;outlineConnect=0;targetShapes=umlLifeline;portConstraint=eastwest;newEdgeStyle={&quot;edgeStyle&quot;:&quot;elbowEdgeStyle&quot;,&quot;elbow&quot;:&quot;vertical&quot;,&quot;curved&quot;:0,&quot;rounded&quot;:0};" parent="hAaRibH6YbzZ0h87aK_9-1" vertex="1">
          <mxGeometry x="45" y="567" width="10" height="40" as="geometry" />
        </mxCell>
        <mxCell id="hAaRibH6YbzZ0h87aK_9-77" value="" style="html=1;points=[];perimeter=orthogonalPerimeter;outlineConnect=0;targetShapes=umlLifeline;portConstraint=eastwest;newEdgeStyle={&quot;edgeStyle&quot;:&quot;elbowEdgeStyle&quot;,&quot;elbow&quot;:&quot;vertical&quot;,&quot;curved&quot;:0,&quot;rounded&quot;:0};" parent="hAaRibH6YbzZ0h87aK_9-1" vertex="1">
          <mxGeometry x="45" y="666" width="10" height="50" as="geometry" />
        </mxCell>
        <mxCell id="hAaRibH6YbzZ0h87aK_9-3" value="DeviceOEM-Server" style="shape=umlLifeline;perimeter=lifelinePerimeter;whiteSpace=wrap;html=1;container=0;dropTarget=0;collapsible=0;recursiveResize=0;outlineConnect=0;portConstraint=eastwest;newEdgeStyle={&quot;edgeStyle&quot;:&quot;elbowEdgeStyle&quot;,&quot;elbow&quot;:&quot;vertical&quot;,&quot;curved&quot;:0,&quot;rounded&quot;:0};" parent="1" vertex="1">
          <mxGeometry x="-255" y="40" width="140" height="1120" as="geometry" />
        </mxCell>
        <mxCell id="hAaRibH6YbzZ0h87aK_9-70" value="" style="html=1;points=[];perimeter=orthogonalPerimeter;outlineConnect=0;targetShapes=umlLifeline;portConstraint=eastwest;newEdgeStyle={&quot;edgeStyle&quot;:&quot;elbowEdgeStyle&quot;,&quot;elbow&quot;:&quot;vertical&quot;,&quot;curved&quot;:0,&quot;rounded&quot;:0};" parent="hAaRibH6YbzZ0h87aK_9-3" vertex="1">
          <mxGeometry x="65" y="568" width="10" height="48" as="geometry" />
        </mxCell>
        <mxCell id="hAaRibH6YbzZ0h87aK_9-138" value="" style="html=1;points=[];perimeter=orthogonalPerimeter;outlineConnect=0;targetShapes=umlLifeline;portConstraint=eastwest;newEdgeStyle={&quot;edgeStyle&quot;:&quot;elbowEdgeStyle&quot;,&quot;elbow&quot;:&quot;vertical&quot;,&quot;curved&quot;:0,&quot;rounded&quot;:0};" parent="hAaRibH6YbzZ0h87aK_9-3" vertex="1">
          <mxGeometry x="-175" y="1019" width="10" height="40" as="geometry" />
        </mxCell>
        <mxCell id="hAaRibH6YbzZ0h87aK_9-139" value="" style="html=1;points=[];perimeter=orthogonalPerimeter;outlineConnect=0;targetShapes=umlLifeline;portConstraint=eastwest;newEdgeStyle={&quot;edgeStyle&quot;:&quot;elbowEdgeStyle&quot;,&quot;elbow&quot;:&quot;vertical&quot;,&quot;curved&quot;:0,&quot;rounded&quot;:0};" parent="hAaRibH6YbzZ0h87aK_9-3" vertex="1">
          <mxGeometry x="65" y="1011" width="10" height="48" as="geometry" />
        </mxCell>
        <mxCell id="hAaRibH6YbzZ0h87aK_9-140" value="" style="endArrow=classic;html=1;rounded=0;" parent="hAaRibH6YbzZ0h87aK_9-3" edge="1">
          <mxGeometry width="50" height="50" relative="1" as="geometry">
            <mxPoint x="286.5" y="1021" as="sourcePoint" />
            <mxPoint x="75" y="1021" as="targetPoint" />
          </mxGeometry>
        </mxCell>
        <mxCell id="hAaRibH6YbzZ0h87aK_9-141" value="OTA任务升级状态" style="edgeLabel;html=1;align=center;verticalAlign=middle;resizable=0;points=[];" parent="hAaRibH6YbzZ0h87aK_9-140" vertex="1" connectable="0">
          <mxGeometry x="-0.1703" y="2" relative="1" as="geometry">
            <mxPoint x="-13" y="-3" as="offset" />
          </mxGeometry>
        </mxCell>
        <mxCell id="hAaRibH6YbzZ0h87aK_9-142" value="" style="endArrow=classic;html=1;rounded=0;" parent="hAaRibH6YbzZ0h87aK_9-3" edge="1">
          <mxGeometry width="50" height="50" relative="1" as="geometry">
            <mxPoint x="65" y="1034" as="sourcePoint" />
            <mxPoint x="-165" y="1034" as="targetPoint" />
          </mxGeometry>
        </mxCell>
        <mxCell id="hAaRibH6YbzZ0h87aK_9-143" value="APP推送：OTA任务升级状态" style="edgeLabel;html=1;align=center;verticalAlign=middle;resizable=0;points=[];" parent="hAaRibH6YbzZ0h87aK_9-142" vertex="1" connectable="0">
          <mxGeometry x="-0.1703" y="2" relative="1" as="geometry">
            <mxPoint x="-13" y="-3" as="offset" />
          </mxGeometry>
        </mxCell>
        <mxCell id="hAaRibH6YbzZ0h87aK_9-144" value="返回" style="html=1;verticalAlign=bottom;endArrow=open;dashed=1;endSize=8;edgeStyle=elbowEdgeStyle;elbow=vertical;curved=0;rounded=0;" parent="hAaRibH6YbzZ0h87aK_9-3" edge="1">
          <mxGeometry y="-5" relative="1" as="geometry">
            <mxPoint x="285" y="1049" as="targetPoint" />
            <Array as="points" />
            <mxPoint x="75" y="1049" as="sourcePoint" />
            <mxPoint as="offset" />
          </mxGeometry>
        </mxCell>
        <mxCell id="hAaRibH6YbzZ0h87aK_9-7" value="VehicleOEM-Server" style="shape=umlLifeline;perimeter=lifelinePerimeter;whiteSpace=wrap;html=1;container=0;dropTarget=0;collapsible=0;recursiveResize=0;outlineConnect=0;portConstraint=eastwest;newEdgeStyle={&quot;edgeStyle&quot;:&quot;elbowEdgeStyle&quot;,&quot;elbow&quot;:&quot;vertical&quot;,&quot;curved&quot;:0,&quot;rounded&quot;:0};" parent="1" vertex="1">
          <mxGeometry x="188" y="40" width="140" height="1120" as="geometry" />
        </mxCell>
        <mxCell id="hAaRibH6YbzZ0h87aK_9-8" value="" style="html=1;points=[];perimeter=orthogonalPerimeter;outlineConnect=0;targetShapes=umlLifeline;portConstraint=eastwest;newEdgeStyle={&quot;edgeStyle&quot;:&quot;elbowEdgeStyle&quot;,&quot;elbow&quot;:&quot;vertical&quot;,&quot;curved&quot;:0,&quot;rounded&quot;:0};" parent="hAaRibH6YbzZ0h87aK_9-7" vertex="1">
          <mxGeometry x="65" y="459" width="10" height="50" as="geometry" />
        </mxCell>
        <mxCell id="hAaRibH6YbzZ0h87aK_9-41" value="" style="html=1;points=[];perimeter=orthogonalPerimeter;outlineConnect=0;targetShapes=umlLifeline;portConstraint=eastwest;newEdgeStyle={&quot;edgeStyle&quot;:&quot;elbowEdgeStyle&quot;,&quot;elbow&quot;:&quot;vertical&quot;,&quot;curved&quot;:0,&quot;rounded&quot;:0};" parent="hAaRibH6YbzZ0h87aK_9-7" vertex="1">
          <mxGeometry x="65" y="287" width="10" height="62" as="geometry" />
        </mxCell>
        <mxCell id="hAaRibH6YbzZ0h87aK_9-105" value="" style="html=1;points=[];perimeter=orthogonalPerimeter;outlineConnect=0;targetShapes=umlLifeline;portConstraint=eastwest;newEdgeStyle={&quot;edgeStyle&quot;:&quot;elbowEdgeStyle&quot;,&quot;elbow&quot;:&quot;vertical&quot;,&quot;curved&quot;:0,&quot;rounded&quot;:0};" parent="hAaRibH6YbzZ0h87aK_9-7" vertex="1">
          <mxGeometry x="66" y="780" width="10" height="169" as="geometry" />
        </mxCell>
        <mxCell id="hAaRibH6YbzZ0h87aK_9-9" value="Vehicle" style="shape=umlLifeline;perimeter=lifelinePerimeter;whiteSpace=wrap;html=1;container=0;dropTarget=0;collapsible=0;recursiveResize=0;outlineConnect=0;portConstraint=eastwest;newEdgeStyle={&quot;edgeStyle&quot;:&quot;elbowEdgeStyle&quot;,&quot;elbow&quot;:&quot;vertical&quot;,&quot;curved&quot;:0,&quot;rounded&quot;:0};" parent="1" vertex="1">
          <mxGeometry x="428" y="40" width="140" height="1120" as="geometry" />
        </mxCell>
        <mxCell id="hAaRibH6YbzZ0h87aK_9-44" value="" style="html=1;points=[];perimeter=orthogonalPerimeter;outlineConnect=0;targetShapes=umlLifeline;portConstraint=eastwest;newEdgeStyle={&quot;edgeStyle&quot;:&quot;elbowEdgeStyle&quot;,&quot;elbow&quot;:&quot;vertical&quot;,&quot;curved&quot;:0,&quot;rounded&quot;:0};" parent="hAaRibH6YbzZ0h87aK_9-9" vertex="1">
          <mxGeometry x="65" y="277" width="10" height="247" as="geometry" />
        </mxCell>
        <mxCell id="hAaRibH6YbzZ0h87aK_9-107" value="" style="html=1;points=[];perimeter=orthogonalPerimeter;outlineConnect=0;targetShapes=umlLifeline;portConstraint=eastwest;newEdgeStyle={&quot;edgeStyle&quot;:&quot;elbowEdgeStyle&quot;,&quot;elbow&quot;:&quot;vertical&quot;,&quot;curved&quot;:0,&quot;rounded&quot;:0};" parent="hAaRibH6YbzZ0h87aK_9-9" vertex="1">
          <mxGeometry x="65" y="787" width="10" height="162" as="geometry" />
        </mxCell>
        <mxCell id="hAaRibH6YbzZ0h87aK_9-10" value="" style="endArrow=classic;html=1;rounded=0;" parent="1" edge="1">
          <mxGeometry width="50" height="50" relative="1" as="geometry">
            <mxPoint x="488" y="145" as="sourcePoint" />
            <mxPoint x="268" y="145" as="targetPoint" />
          </mxGeometry>
        </mxCell>
        <mxCell id="hAaRibH6YbzZ0h87aK_9-11" value="上报固件信息" style="edgeLabel;html=1;align=center;verticalAlign=middle;resizable=0;points=[];" parent="hAaRibH6YbzZ0h87aK_9-10" vertex="1" connectable="0">
          <mxGeometry x="-0.1703" y="2" relative="1" as="geometry">
            <mxPoint x="-13" y="-3" as="offset" />
          </mxGeometry>
        </mxCell>
        <mxCell id="hAaRibH6YbzZ0h87aK_9-12" value="硬件模块重启、设备上电重启" style="html=1;align=left;spacingLeft=2;endArrow=block;rounded=0;edgeStyle=orthogonalEdgeStyle;curved=0;rounded=0;fontFamily=Helvetica;fontSize=12;fontColor=default;" parent="1" edge="1">
          <mxGeometry relative="1" as="geometry">
            <mxPoint x="503" y="108" as="sourcePoint" />
            <Array as="points">
              <mxPoint x="533" y="108" />
              <mxPoint x="533" y="138" />
            </Array>
            <mxPoint x="503" y="138" as="targetPoint" />
          </mxGeometry>
        </mxCell>
        <mxCell id="hAaRibH6YbzZ0h87aK_9-13" value="固件下载红点通知" style="shape=umlFrame;whiteSpace=wrap;html=1;pointerEvents=0;sketch=0;strokeColor=default;align=center;verticalAlign=middle;fontFamily=Helvetica;fontSize=12;fontColor=default;fillColor=default;" parent="1" vertex="1">
          <mxGeometry x="-520" y="300" width="1300" height="370" as="geometry" />
        </mxCell>
        <mxCell id="hAaRibH6YbzZ0h87aK_9-14" value="" style="endArrow=classic;html=1;rounded=0;" parent="1" edge="1">
          <mxGeometry width="50" height="50" relative="1" as="geometry">
            <mxPoint x="50" y="337" as="sourcePoint" />
            <mxPoint x="250" y="337" as="targetPoint" />
          </mxGeometry>
        </mxCell>
        <mxCell id="hAaRibH6YbzZ0h87aK_9-15" value="通知车辆下载固件" style="edgeLabel;html=1;align=center;verticalAlign=middle;resizable=0;points=[];" parent="hAaRibH6YbzZ0h87aK_9-14" vertex="1" connectable="0">
          <mxGeometry x="-0.1703" y="2" relative="1" as="geometry">
            <mxPoint as="offset" />
          </mxGeometry>
        </mxCell>
        <mxCell id="hAaRibH6YbzZ0h87aK_9-18" value="" style="html=1;points=[];perimeter=orthogonalPerimeter;outlineConnect=0;targetShapes=umlLifeline;portConstraint=eastwest;newEdgeStyle={&quot;edgeStyle&quot;:&quot;elbowEdgeStyle&quot;,&quot;elbow&quot;:&quot;vertical&quot;,&quot;curved&quot;:0,&quot;rounded&quot;:0};" parent="1" vertex="1">
          <mxGeometry x="253" y="133" width="10" height="52" as="geometry" />
        </mxCell>
        <mxCell id="hAaRibH6YbzZ0h87aK_9-19" value="" style="html=1;points=[];perimeter=orthogonalPerimeter;outlineConnect=0;targetShapes=umlLifeline;portConstraint=eastwest;newEdgeStyle={&quot;edgeStyle&quot;:&quot;elbowEdgeStyle&quot;,&quot;elbow&quot;:&quot;vertical&quot;,&quot;curved&quot;:0,&quot;rounded&quot;:0};" parent="1" vertex="1">
          <mxGeometry x="493" y="98" width="10" height="92" as="geometry" />
        </mxCell>
        <mxCell id="hAaRibH6YbzZ0h87aK_9-26" value="返回固件文件" style="html=1;verticalAlign=bottom;endArrow=open;dashed=1;endSize=8;edgeStyle=elbowEdgeStyle;elbow=horizontal;curved=0;rounded=0;" parent="1" edge="1">
          <mxGeometry x="-0.0047" y="10" relative="1" as="geometry">
            <mxPoint x="503" y="487" as="targetPoint" />
            <Array as="points" />
            <mxPoint x="718" y="487" as="sourcePoint" />
            <mxPoint as="offset" />
          </mxGeometry>
        </mxCell>
        <mxCell id="hAaRibH6YbzZ0h87aK_9-29" value="OTA-Server" style="shape=umlLifeline;perimeter=lifelinePerimeter;whiteSpace=wrap;html=1;container=0;dropTarget=0;collapsible=0;recursiveResize=0;outlineConnect=0;portConstraint=eastwest;newEdgeStyle={&quot;edgeStyle&quot;:&quot;elbowEdgeStyle&quot;,&quot;elbow&quot;:&quot;vertical&quot;,&quot;curved&quot;:0,&quot;rounded&quot;:0};" parent="1" vertex="1">
          <mxGeometry x="-30" y="40" width="140" height="1120" as="geometry" />
        </mxCell>
        <mxCell id="hAaRibH6YbzZ0h87aK_9-30" value="" style="html=1;points=[];perimeter=orthogonalPerimeter;outlineConnect=0;targetShapes=umlLifeline;portConstraint=eastwest;newEdgeStyle={&quot;edgeStyle&quot;:&quot;elbowEdgeStyle&quot;,&quot;elbow&quot;:&quot;vertical&quot;,&quot;curved&quot;:0,&quot;rounded&quot;:0};" parent="hAaRibH6YbzZ0h87aK_9-29" vertex="1">
          <mxGeometry x="65" y="103" width="10" height="37" as="geometry" />
        </mxCell>
        <mxCell id="hAaRibH6YbzZ0h87aK_9-36" value="" style="html=1;points=[];perimeter=orthogonalPerimeter;outlineConnect=0;targetShapes=umlLifeline;portConstraint=eastwest;newEdgeStyle={&quot;edgeStyle&quot;:&quot;elbowEdgeStyle&quot;,&quot;elbow&quot;:&quot;vertical&quot;,&quot;curved&quot;:0,&quot;rounded&quot;:0};" parent="hAaRibH6YbzZ0h87aK_9-29" vertex="1">
          <mxGeometry x="65" y="465" width="10" height="143" as="geometry" />
        </mxCell>
        <mxCell id="hAaRibH6YbzZ0h87aK_9-53" value="" style="html=1;points=[];perimeter=orthogonalPerimeter;outlineConnect=0;targetShapes=umlLifeline;portConstraint=eastwest;newEdgeStyle={&quot;edgeStyle&quot;:&quot;elbowEdgeStyle&quot;,&quot;elbow&quot;:&quot;vertical&quot;,&quot;curved&quot;:0,&quot;rounded&quot;:0};" parent="hAaRibH6YbzZ0h87aK_9-29" vertex="1">
          <mxGeometry x="65" y="278" width="10" height="80" as="geometry" />
        </mxCell>
        <mxCell id="hAaRibH6YbzZ0h87aK_9-136" value="" style="html=1;points=[];perimeter=orthogonalPerimeter;outlineConnect=0;targetShapes=umlLifeline;portConstraint=eastwest;newEdgeStyle={&quot;edgeStyle&quot;:&quot;elbowEdgeStyle&quot;,&quot;elbow&quot;:&quot;vertical&quot;,&quot;curved&quot;:0,&quot;rounded&quot;:0};" parent="hAaRibH6YbzZ0h87aK_9-29" vertex="1">
          <mxGeometry x="66" y="899" width="10" height="180" as="geometry" />
        </mxCell>
        <mxCell id="hAaRibH6YbzZ0h87aK_9-137" value="" style="html=1;points=[];perimeter=orthogonalPerimeter;outlineConnect=0;targetShapes=umlLifeline;portConstraint=eastwest;newEdgeStyle={&quot;edgeStyle&quot;:&quot;elbowEdgeStyle&quot;,&quot;elbow&quot;:&quot;vertical&quot;,&quot;curved&quot;:0,&quot;rounded&quot;:0};" parent="hAaRibH6YbzZ0h87aK_9-29" vertex="1">
          <mxGeometry x="61" y="1009" width="10" height="50" as="geometry" />
        </mxCell>
        <mxCell id="hAaRibH6YbzZ0h87aK_9-197" value="" style="html=1;points=[];perimeter=orthogonalPerimeter;outlineConnect=0;targetShapes=umlLifeline;portConstraint=eastwest;newEdgeStyle={&quot;edgeStyle&quot;:&quot;elbowEdgeStyle&quot;,&quot;elbow&quot;:&quot;vertical&quot;,&quot;curved&quot;:0,&quot;rounded&quot;:0};" parent="hAaRibH6YbzZ0h87aK_9-29" vertex="1">
          <mxGeometry x="65.5" y="161" width="10" height="72" as="geometry" />
        </mxCell>
        <mxCell id="hAaRibH6YbzZ0h87aK_9-198" value="运营后台：&lt;div&gt;1、固件管理&lt;/div&gt;&lt;div&gt;2、配置升级&lt;/div&gt;" style="html=1;align=left;spacingLeft=2;endArrow=block;rounded=0;edgeStyle=orthogonalEdgeStyle;curved=0;rounded=0;fontFamily=Helvetica;fontSize=12;fontColor=default;" parent="hAaRibH6YbzZ0h87aK_9-29" source="hAaRibH6YbzZ0h87aK_9-197" edge="1">
          <mxGeometry relative="1" as="geometry">
            <mxPoint x="76" y="175" as="sourcePoint" />
            <Array as="points">
              <mxPoint x="120" y="170" />
              <mxPoint x="120" y="215" />
            </Array>
            <mxPoint x="76" y="215" as="targetPoint" />
          </mxGeometry>
        </mxCell>
        <mxCell id="hAaRibH6YbzZ0h87aK_9-33" value="FTP服务器" style="shape=umlLifeline;perimeter=lifelinePerimeter;whiteSpace=wrap;html=1;container=0;dropTarget=0;collapsible=0;recursiveResize=0;outlineConnect=0;portConstraint=eastwest;newEdgeStyle={&quot;edgeStyle&quot;:&quot;elbowEdgeStyle&quot;,&quot;elbow&quot;:&quot;vertical&quot;,&quot;curved&quot;:0,&quot;rounded&quot;:0};" parent="1" vertex="1">
          <mxGeometry x="650" y="40" width="140" height="1120" as="geometry" />
        </mxCell>
        <mxCell id="hAaRibH6YbzZ0h87aK_9-50" value="" style="html=1;points=[];perimeter=orthogonalPerimeter;outlineConnect=0;targetShapes=umlLifeline;portConstraint=eastwest;newEdgeStyle={&quot;edgeStyle&quot;:&quot;elbowEdgeStyle&quot;,&quot;elbow&quot;:&quot;vertical&quot;,&quot;curved&quot;:0,&quot;rounded&quot;:0};" parent="hAaRibH6YbzZ0h87aK_9-33" vertex="1">
          <mxGeometry x="65" y="417" width="10" height="37" as="geometry" />
        </mxCell>
        <mxCell id="hAaRibH6YbzZ0h87aK_9-34" value="" style="endArrow=classic;html=1;rounded=0;" parent="1" edge="1">
          <mxGeometry width="50" height="50" relative="1" as="geometry">
            <mxPoint x="250" y="153" as="sourcePoint" />
            <mxPoint x="50" y="153" as="targetPoint" />
          </mxGeometry>
        </mxCell>
        <mxCell id="hAaRibH6YbzZ0h87aK_9-35" value="上报固件信息" style="edgeLabel;html=1;align=center;verticalAlign=middle;resizable=0;points=[];" parent="hAaRibH6YbzZ0h87aK_9-34" vertex="1" connectable="0">
          <mxGeometry x="-0.1703" y="2" relative="1" as="geometry">
            <mxPoint x="-13" y="-3" as="offset" />
          </mxGeometry>
        </mxCell>
        <mxCell id="hAaRibH6YbzZ0h87aK_9-40" value="返回" style="html=1;verticalAlign=bottom;endArrow=open;dashed=1;endSize=8;edgeStyle=elbowEdgeStyle;elbow=vertical;curved=0;rounded=0;" parent="1" edge="1">
          <mxGeometry y="-5" relative="1" as="geometry">
            <mxPoint x="490.5" y="177" as="targetPoint" />
            <Array as="points" />
            <mxPoint x="270" y="177" as="sourcePoint" />
            <mxPoint as="offset" />
          </mxGeometry>
        </mxCell>
        <mxCell id="hAaRibH6YbzZ0h87aK_9-42" value="" style="endArrow=classic;html=1;rounded=0;" parent="1" edge="1">
          <mxGeometry width="50" height="50" relative="1" as="geometry">
            <mxPoint x="270" y="347" as="sourcePoint" />
            <mxPoint x="492.5" y="346.5" as="targetPoint" />
          </mxGeometry>
        </mxCell>
        <mxCell id="hAaRibH6YbzZ0h87aK_9-43" value="通知车辆下载固件" style="edgeLabel;html=1;align=center;verticalAlign=middle;resizable=0;points=[];" parent="hAaRibH6YbzZ0h87aK_9-42" vertex="1" connectable="0">
          <mxGeometry x="-0.1703" y="2" relative="1" as="geometry">
            <mxPoint as="offset" />
          </mxGeometry>
        </mxCell>
        <mxCell id="hAaRibH6YbzZ0h87aK_9-46" value="返回" style="html=1;verticalAlign=bottom;endArrow=open;dashed=1;endSize=8;edgeStyle=elbowEdgeStyle;elbow=horizontal;curved=0;rounded=0;entryX=0.7;entryY=0.806;entryDx=0;entryDy=0;entryPerimeter=0;" parent="1" edge="1">
          <mxGeometry x="-0.0047" y="10" relative="1" as="geometry">
            <mxPoint x="265" y="376.972" as="targetPoint" />
            <Array as="points" />
            <mxPoint x="490" y="377" as="sourcePoint" />
            <mxPoint as="offset" />
          </mxGeometry>
        </mxCell>
        <mxCell id="hAaRibH6YbzZ0h87aK_9-47" value="返回" style="html=1;verticalAlign=bottom;endArrow=open;dashed=1;endSize=8;edgeStyle=elbowEdgeStyle;elbow=horizontal;curved=0;rounded=0;" parent="1" edge="1">
          <mxGeometry x="-0.0047" y="10" relative="1" as="geometry">
            <mxPoint x="53" y="387" as="targetPoint" />
            <Array as="points" />
            <mxPoint x="250" y="387" as="sourcePoint" />
            <mxPoint as="offset" />
          </mxGeometry>
        </mxCell>
        <mxCell id="hAaRibH6YbzZ0h87aK_9-48" value="" style="endArrow=classic;html=1;rounded=0;exitX=0.7;exitY=0.435;exitDx=0;exitDy=0;exitPerimeter=0;" parent="1" edge="1">
          <mxGeometry width="50" height="50" relative="1" as="geometry">
            <mxPoint x="502" y="466" as="sourcePoint" />
            <mxPoint x="714" y="466" as="targetPoint" />
          </mxGeometry>
        </mxCell>
        <mxCell id="hAaRibH6YbzZ0h87aK_9-49" value="https 下载固件" style="edgeLabel;html=1;align=center;verticalAlign=middle;resizable=0;points=[];" parent="hAaRibH6YbzZ0h87aK_9-48" vertex="1" connectable="0">
          <mxGeometry x="-0.1703" y="2" relative="1" as="geometry">
            <mxPoint as="offset" />
          </mxGeometry>
        </mxCell>
        <mxCell id="hAaRibH6YbzZ0h87aK_9-51" value="固件下载状态&lt;br&gt;下载中、下载失败（原因）、下载成功" style="html=1;verticalAlign=bottom;endArrow=open;endSize=8;edgeStyle=elbowEdgeStyle;elbow=horizontal;curved=0;rounded=0;" parent="1" edge="1">
          <mxGeometry y="10" relative="1" as="geometry">
            <mxPoint x="263" y="509" as="targetPoint" />
            <Array as="points" />
            <mxPoint x="493" y="509" as="sourcePoint" />
            <mxPoint as="offset" />
          </mxGeometry>
        </mxCell>
        <mxCell id="hAaRibH6YbzZ0h87aK_9-52" value="返回" style="html=1;verticalAlign=bottom;endArrow=open;dashed=1;endSize=8;edgeStyle=elbowEdgeStyle;elbow=vertical;curved=0;rounded=0;" parent="1" edge="1">
          <mxGeometry y="-5" relative="1" as="geometry">
            <mxPoint x="490" y="539" as="targetPoint" />
            <Array as="points" />
            <mxPoint x="269" y="539" as="sourcePoint" />
            <mxPoint as="offset" />
          </mxGeometry>
        </mxCell>
        <mxCell id="hAaRibH6YbzZ0h87aK_9-54" value="固件下载状态&lt;br&gt;下载中、下载失败（原因）、下载成功" style="html=1;verticalAlign=bottom;endArrow=open;endSize=8;edgeStyle=elbowEdgeStyle;elbow=vertical;curved=0;rounded=0;" parent="1" edge="1">
          <mxGeometry y="10" relative="1" as="geometry">
            <mxPoint x="45" y="511" as="targetPoint" />
            <Array as="points" />
            <mxPoint x="250" y="511" as="sourcePoint" />
            <mxPoint as="offset" />
          </mxGeometry>
        </mxCell>
        <mxCell id="hAaRibH6YbzZ0h87aK_9-55" value="返回" style="html=1;verticalAlign=bottom;endArrow=open;dashed=1;endSize=8;edgeStyle=elbowEdgeStyle;elbow=vertical;curved=0;rounded=0;" parent="1" edge="1">
          <mxGeometry y="-5" relative="1" as="geometry">
            <mxPoint x="250" y="539" as="targetPoint" />
            <Array as="points" />
            <mxPoint x="50" y="539" as="sourcePoint" />
            <mxPoint as="offset" />
          </mxGeometry>
        </mxCell>
        <mxCell id="hAaRibH6YbzZ0h87aK_9-68" value="" style="endArrow=classic;html=1;rounded=0;" parent="1" edge="1">
          <mxGeometry width="50" height="50" relative="1" as="geometry">
            <mxPoint x="32" y="616" as="sourcePoint" />
            <mxPoint x="-180" y="616" as="targetPoint" />
          </mxGeometry>
        </mxCell>
        <mxCell id="hAaRibH6YbzZ0h87aK_9-69" value="红点通知App有ota固件升级" style="edgeLabel;html=1;align=center;verticalAlign=middle;resizable=0;points=[];" parent="hAaRibH6YbzZ0h87aK_9-68" vertex="1" connectable="0">
          <mxGeometry x="-0.1703" y="2" relative="1" as="geometry">
            <mxPoint x="-13" y="-3" as="offset" />
          </mxGeometry>
        </mxCell>
        <mxCell id="hAaRibH6YbzZ0h87aK_9-72" value="对比车端内部版本，决定是否下载" style="html=1;align=left;spacingLeft=2;endArrow=block;rounded=0;edgeStyle=orthogonalEdgeStyle;curved=0;rounded=0;fontFamily=Helvetica;fontSize=12;fontColor=default;" parent="1" edge="1">
          <mxGeometry relative="1" as="geometry">
            <mxPoint x="503" y="409" as="sourcePoint" />
            <Array as="points">
              <mxPoint x="533" y="409" />
              <mxPoint x="533" y="439" />
            </Array>
            <mxPoint x="503" y="439" as="targetPoint" />
          </mxGeometry>
        </mxCell>
        <mxCell id="hAaRibH6YbzZ0h87aK_9-73" value="" style="endArrow=classic;html=1;rounded=0;" parent="1" edge="1">
          <mxGeometry width="50" height="50" relative="1" as="geometry">
            <mxPoint x="-198.5" y="629" as="sourcePoint" />
            <mxPoint x="-420" y="629" as="targetPoint" />
          </mxGeometry>
        </mxCell>
        <mxCell id="hAaRibH6YbzZ0h87aK_9-74" value="APP推送：红点通知App有ota固件升级" style="edgeLabel;html=1;align=center;verticalAlign=middle;resizable=0;points=[];" parent="hAaRibH6YbzZ0h87aK_9-73" vertex="1" connectable="0">
          <mxGeometry x="-0.1703" y="2" relative="1" as="geometry">
            <mxPoint x="-13" y="-3" as="offset" />
          </mxGeometry>
        </mxCell>
        <mxCell id="hAaRibH6YbzZ0h87aK_9-76" value="返回" style="html=1;verticalAlign=bottom;endArrow=open;dashed=1;endSize=8;edgeStyle=elbowEdgeStyle;elbow=vertical;curved=0;rounded=0;" parent="1" edge="1">
          <mxGeometry y="-5" relative="1" as="geometry">
            <mxPoint x="30" y="644" as="targetPoint" />
            <Array as="points" />
            <mxPoint x="-180" y="644" as="sourcePoint" />
            <mxPoint as="offset" />
          </mxGeometry>
        </mxCell>
        <mxCell id="hAaRibH6YbzZ0h87aK_9-78" value="" style="endArrow=classic;html=1;rounded=0;" parent="1" target="hAaRibH6YbzZ0h87aK_9-84" edge="1">
          <mxGeometry width="50" height="50" relative="1" as="geometry">
            <mxPoint x="-420" y="716" as="sourcePoint" />
            <mxPoint x="-220" y="716" as="targetPoint" />
          </mxGeometry>
        </mxCell>
        <mxCell id="hAaRibH6YbzZ0h87aK_9-79" value="用户主动查询OTA任务状态" style="edgeLabel;html=1;align=center;verticalAlign=middle;resizable=0;points=[];" parent="hAaRibH6YbzZ0h87aK_9-78" vertex="1" connectable="0">
          <mxGeometry x="-0.1703" y="2" relative="1" as="geometry">
            <mxPoint as="offset" />
          </mxGeometry>
        </mxCell>
        <mxCell id="hAaRibH6YbzZ0h87aK_9-82" value="OTA状态：等待升级" style="html=1;verticalAlign=bottom;endArrow=open;dashed=1;endSize=8;edgeStyle=elbowEdgeStyle;elbow=vertical;curved=0;rounded=0;entryX=0.7;entryY=0.806;entryDx=0;entryDy=0;entryPerimeter=0;" parent="1" edge="1">
          <mxGeometry x="0.1112" y="10" relative="1" as="geometry">
            <mxPoint x="-420" y="746.002" as="targetPoint" />
            <Array as="points" />
            <mxPoint x="-195" y="746.03" as="sourcePoint" />
            <mxPoint as="offset" />
          </mxGeometry>
        </mxCell>
        <mxCell id="hAaRibH6YbzZ0h87aK_9-83" value="OTA状态：等待升级" style="html=1;verticalAlign=bottom;endArrow=open;dashed=1;endSize=8;edgeStyle=elbowEdgeStyle;elbow=vertical;curved=0;rounded=0;entryX=0.7;entryY=0.806;entryDx=0;entryDy=0;entryPerimeter=0;" parent="1" edge="1">
          <mxGeometry x="0.1112" y="10" relative="1" as="geometry">
            <mxPoint x="-180" y="746.002" as="targetPoint" />
            <Array as="points" />
            <mxPoint x="45" y="746.03" as="sourcePoint" />
            <mxPoint as="offset" />
          </mxGeometry>
        </mxCell>
        <mxCell id="hAaRibH6YbzZ0h87aK_9-84" value="" style="html=1;points=[];perimeter=orthogonalPerimeter;outlineConnect=0;targetShapes=umlLifeline;portConstraint=eastwest;newEdgeStyle={&quot;edgeStyle&quot;:&quot;elbowEdgeStyle&quot;,&quot;elbow&quot;:&quot;vertical&quot;,&quot;curved&quot;:0,&quot;rounded&quot;:0};" parent="1" vertex="1">
          <mxGeometry x="-190" y="706" width="10" height="58" as="geometry" />
        </mxCell>
        <mxCell id="hAaRibH6YbzZ0h87aK_9-88" value="" style="endArrow=classic;html=1;rounded=0;" parent="1" target="hAaRibH6YbzZ0h87aK_9-87" edge="1">
          <mxGeometry width="50" height="50" relative="1" as="geometry">
            <mxPoint x="-180" y="726" as="sourcePoint" />
            <mxPoint x="30" y="726" as="targetPoint" />
          </mxGeometry>
        </mxCell>
        <mxCell id="hAaRibH6YbzZ0h87aK_9-89" value="根据vehicleId查询OTA任务状态" style="edgeLabel;html=1;align=center;verticalAlign=middle;resizable=0;points=[];" parent="hAaRibH6YbzZ0h87aK_9-88" vertex="1" connectable="0">
          <mxGeometry x="-0.1703" y="2" relative="1" as="geometry">
            <mxPoint x="21" as="offset" />
          </mxGeometry>
        </mxCell>
        <mxCell id="hAaRibH6YbzZ0h87aK_9-87" value="" style="html=1;points=[];perimeter=orthogonalPerimeter;outlineConnect=0;targetShapes=umlLifeline;portConstraint=eastwest;newEdgeStyle={&quot;edgeStyle&quot;:&quot;elbowEdgeStyle&quot;,&quot;elbow&quot;:&quot;vertical&quot;,&quot;curved&quot;:0,&quot;rounded&quot;:0};" parent="1" vertex="1">
          <mxGeometry x="35" y="706" width="10" height="58" as="geometry" />
        </mxCell>
        <mxCell id="hAaRibH6YbzZ0h87aK_9-93" value="" style="html=1;points=[];perimeter=orthogonalPerimeter;outlineConnect=0;targetShapes=umlLifeline;portConstraint=eastwest;newEdgeStyle={&quot;edgeStyle&quot;:&quot;elbowEdgeStyle&quot;,&quot;elbow&quot;:&quot;vertical&quot;,&quot;curved&quot;:0,&quot;rounded&quot;:0};" parent="1" vertex="1">
          <mxGeometry x="-430" y="806" width="10" height="83" as="geometry" />
        </mxCell>
        <mxCell id="hAaRibH6YbzZ0h87aK_9-94" value="" style="endArrow=classic;html=1;rounded=0;" parent="1" target="hAaRibH6YbzZ0h87aK_9-98" edge="1">
          <mxGeometry width="50" height="50" relative="1" as="geometry">
            <mxPoint x="-420" y="816" as="sourcePoint" />
            <mxPoint x="-220" y="816" as="targetPoint" />
          </mxGeometry>
        </mxCell>
        <mxCell id="hAaRibH6YbzZ0h87aK_9-95" value="点击升级" style="edgeLabel;html=1;align=center;verticalAlign=middle;resizable=0;points=[];" parent="hAaRibH6YbzZ0h87aK_9-94" vertex="1" connectable="0">
          <mxGeometry x="-0.1703" y="2" relative="1" as="geometry">
            <mxPoint as="offset" />
          </mxGeometry>
        </mxCell>
        <mxCell id="hAaRibH6YbzZ0h87aK_9-96" value="升级中" style="html=1;verticalAlign=bottom;endArrow=open;dashed=1;endSize=8;edgeStyle=elbowEdgeStyle;elbow=horizontal;curved=0;rounded=0;entryX=0.7;entryY=0.806;entryDx=0;entryDy=0;entryPerimeter=0;" parent="1" edge="1">
          <mxGeometry x="0.1112" y="10" relative="1" as="geometry">
            <mxPoint x="-420" y="869.002" as="targetPoint" />
            <Array as="points" />
            <mxPoint x="-195" y="869.03" as="sourcePoint" />
            <mxPoint as="offset" />
          </mxGeometry>
        </mxCell>
        <mxCell id="hAaRibH6YbzZ0h87aK_9-97" value="升级中" style="html=1;verticalAlign=bottom;endArrow=open;dashed=1;endSize=8;edgeStyle=elbowEdgeStyle;elbow=horizontal;curved=0;rounded=0;entryX=0.7;entryY=0.806;entryDx=0;entryDy=0;entryPerimeter=0;" parent="1" edge="1">
          <mxGeometry x="0.111" y="10" relative="1" as="geometry">
            <mxPoint x="-180" y="859.002" as="targetPoint" />
            <Array as="points" />
            <mxPoint x="30" y="859" as="sourcePoint" />
            <mxPoint as="offset" />
          </mxGeometry>
        </mxCell>
        <mxCell id="hAaRibH6YbzZ0h87aK_9-98" value="" style="html=1;points=[];perimeter=orthogonalPerimeter;outlineConnect=0;targetShapes=umlLifeline;portConstraint=eastwest;newEdgeStyle={&quot;edgeStyle&quot;:&quot;elbowEdgeStyle&quot;,&quot;elbow&quot;:&quot;vertical&quot;,&quot;curved&quot;:0,&quot;rounded&quot;:0};" parent="1" vertex="1">
          <mxGeometry x="-190" y="806" width="10" height="73" as="geometry" />
        </mxCell>
        <mxCell id="hAaRibH6YbzZ0h87aK_9-99" value="" style="endArrow=classic;html=1;rounded=0;" parent="1" source="hAaRibH6YbzZ0h87aK_9-98" edge="1">
          <mxGeometry width="50" height="50" relative="1" as="geometry">
            <mxPoint x="-172" y="826" as="sourcePoint" />
            <mxPoint x="31" y="826" as="targetPoint" />
          </mxGeometry>
        </mxCell>
        <mxCell id="hAaRibH6YbzZ0h87aK_9-100" value="OTA任务升级命令" style="edgeLabel;html=1;align=center;verticalAlign=middle;resizable=0;points=[];" parent="hAaRibH6YbzZ0h87aK_9-99" vertex="1" connectable="0">
          <mxGeometry x="-0.1703" y="2" relative="1" as="geometry">
            <mxPoint x="21" as="offset" />
          </mxGeometry>
        </mxCell>
        <mxCell id="hAaRibH6YbzZ0h87aK_9-101" value="" style="html=1;points=[];perimeter=orthogonalPerimeter;outlineConnect=0;targetShapes=umlLifeline;portConstraint=eastwest;newEdgeStyle={&quot;edgeStyle&quot;:&quot;elbowEdgeStyle&quot;,&quot;elbow&quot;:&quot;vertical&quot;,&quot;curved&quot;:0,&quot;rounded&quot;:0};" parent="1" vertex="1">
          <mxGeometry x="35" y="806" width="10" height="70" as="geometry" />
        </mxCell>
        <mxCell id="hAaRibH6YbzZ0h87aK_9-103" value="" style="endArrow=classic;html=1;rounded=0;" parent="1" edge="1">
          <mxGeometry width="50" height="50" relative="1" as="geometry">
            <mxPoint x="49" y="830.5" as="sourcePoint" />
            <mxPoint x="249" y="830.5" as="targetPoint" />
          </mxGeometry>
        </mxCell>
        <mxCell id="hAaRibH6YbzZ0h87aK_9-104" value="通知车辆升级" style="edgeLabel;html=1;align=center;verticalAlign=middle;resizable=0;points=[];" parent="hAaRibH6YbzZ0h87aK_9-103" vertex="1" connectable="0">
          <mxGeometry x="-0.1703" y="2" relative="1" as="geometry">
            <mxPoint as="offset" />
          </mxGeometry>
        </mxCell>
        <mxCell id="hAaRibH6YbzZ0h87aK_9-106" value="返回" style="html=1;verticalAlign=bottom;endArrow=open;dashed=1;endSize=8;edgeStyle=elbowEdgeStyle;elbow=horizontal;curved=0;rounded=0;" parent="1" edge="1">
          <mxGeometry x="-0.0047" y="10" relative="1" as="geometry">
            <mxPoint x="49" y="860" as="targetPoint" />
            <Array as="points" />
            <mxPoint x="246" y="860" as="sourcePoint" />
            <mxPoint as="offset" />
          </mxGeometry>
        </mxCell>
        <mxCell id="hAaRibH6YbzZ0h87aK_9-108" value="" style="endArrow=classic;html=1;rounded=0;" parent="1" edge="1">
          <mxGeometry width="50" height="50" relative="1" as="geometry">
            <mxPoint x="265" y="840.5" as="sourcePoint" />
            <mxPoint x="492" y="841" as="targetPoint" />
          </mxGeometry>
        </mxCell>
        <mxCell id="hAaRibH6YbzZ0h87aK_9-109" value="通知车辆升级" style="edgeLabel;html=1;align=center;verticalAlign=middle;resizable=0;points=[];" parent="hAaRibH6YbzZ0h87aK_9-108" vertex="1" connectable="0">
          <mxGeometry x="-0.1703" y="2" relative="1" as="geometry">
            <mxPoint as="offset" />
          </mxGeometry>
        </mxCell>
        <mxCell id="hAaRibH6YbzZ0h87aK_9-110" value="检测是否具备升级条件&lt;div&gt;进行固件升级&lt;/div&gt;" style="html=1;align=left;spacingLeft=2;endArrow=block;rounded=0;edgeStyle=orthogonalEdgeStyle;curved=0;rounded=0;fontFamily=Helvetica;fontSize=12;fontColor=default;" parent="1" edge="1">
          <mxGeometry relative="1" as="geometry">
            <mxPoint x="503" y="849" as="sourcePoint" />
            <Array as="points">
              <mxPoint x="533" y="849" />
              <mxPoint x="533" y="879" />
            </Array>
            <mxPoint x="503" y="879" as="targetPoint" />
          </mxGeometry>
        </mxCell>
        <mxCell id="hAaRibH6YbzZ0h87aK_9-112" value="返回" style="html=1;verticalAlign=bottom;endArrow=open;dashed=1;endSize=8;edgeStyle=elbowEdgeStyle;elbow=horizontal;curved=0;rounded=0;" parent="1" edge="1">
          <mxGeometry x="-0.0047" y="10" relative="1" as="geometry">
            <mxPoint x="269" y="890" as="targetPoint" />
            <Array as="points" />
            <mxPoint x="480" y="890" as="sourcePoint" />
            <mxPoint as="offset" />
          </mxGeometry>
        </mxCell>
        <mxCell id="hAaRibH6YbzZ0h87aK_9-113" value="固件升级状态&lt;br&gt;升级中、升级失败（原因）、升级成功" style="html=1;verticalAlign=bottom;endArrow=block;edgeStyle=elbowEdgeStyle;elbow=vertical;curved=0;rounded=0;endFill=1;" parent="1" edge="1">
          <mxGeometry y="10" relative="1" as="geometry">
            <mxPoint x="263" y="939" as="targetPoint" />
            <Array as="points" />
            <mxPoint x="493" y="939" as="sourcePoint" />
            <mxPoint as="offset" />
          </mxGeometry>
        </mxCell>
        <mxCell id="hAaRibH6YbzZ0h87aK_9-114" value="固件升级状态&lt;br&gt;升级中、升级失败（原因）、升级成功" style="html=1;verticalAlign=bottom;endArrow=block;endSize=8;edgeStyle=elbowEdgeStyle;elbow=vertical;curved=0;rounded=0;endFill=1;" parent="1" edge="1">
          <mxGeometry x="-0.0054" y="10" relative="1" as="geometry">
            <mxPoint x="48" y="949" as="targetPoint" />
            <Array as="points" />
            <mxPoint x="251" y="949" as="sourcePoint" />
            <mxPoint as="offset" />
          </mxGeometry>
        </mxCell>
        <mxCell id="hAaRibH6YbzZ0h87aK_9-116" value="返回" style="html=1;verticalAlign=bottom;endArrow=open;dashed=1;endSize=8;edgeStyle=elbowEdgeStyle;elbow=vertical;curved=0;rounded=0;" parent="1" edge="1">
          <mxGeometry y="-5" relative="1" as="geometry">
            <mxPoint x="489" y="979.21" as="targetPoint" />
            <Array as="points" />
            <mxPoint x="268" y="979.21" as="sourcePoint" />
            <mxPoint as="offset" />
          </mxGeometry>
        </mxCell>
        <mxCell id="hAaRibH6YbzZ0h87aK_9-117" value="返回" style="html=1;verticalAlign=bottom;endArrow=open;dashed=1;endSize=8;edgeStyle=elbowEdgeStyle;elbow=vertical;curved=0;rounded=0;" parent="1" edge="1">
          <mxGeometry y="-5" relative="1" as="geometry">
            <mxPoint x="250" y="977" as="targetPoint" />
            <Array as="points" />
            <mxPoint x="45" y="977.21" as="sourcePoint" />
            <mxPoint as="offset" />
          </mxGeometry>
        </mxCell>
        <mxCell id="hAaRibH6YbzZ0h87aK_9-118" value="判读是否固件升级完成&lt;div&gt;更新OTA升级状态：固件升级完成&lt;/div&gt;" style="html=1;align=left;spacingLeft=2;endArrow=block;rounded=0;edgeStyle=orthogonalEdgeStyle;curved=0;rounded=0;fontFamily=Helvetica;fontSize=12;fontColor=default;" parent="1" edge="1">
          <mxGeometry relative="1" as="geometry">
            <mxPoint x="45" y="1018" as="sourcePoint" />
            <Array as="points">
              <mxPoint x="75" y="1018" />
              <mxPoint x="75" y="1048" />
            </Array>
            <mxPoint x="45" y="1048" as="targetPoint" />
          </mxGeometry>
        </mxCell>
        <mxCell id="hAaRibH6YbzZ0h87aK_9-199" value="配置OTA升级计划" style="shape=umlFrame;whiteSpace=wrap;html=1;pointerEvents=0;sketch=0;strokeColor=default;align=center;verticalAlign=middle;fontFamily=Helvetica;fontSize=12;fontColor=default;fillColor=default;" parent="1" vertex="1">
          <mxGeometry x="-520" y="90" width="1300" height="190" as="geometry" />
        </mxCell>
        <mxCell id="pz3cUe00LhZKwhaUI9fC-1" value="返回" style="html=1;verticalAlign=bottom;endArrow=open;dashed=1;endSize=8;edgeStyle=elbowEdgeStyle;elbow=vertical;curved=0;rounded=0;" parent="1" edge="1">
          <mxGeometry y="-5" relative="1" as="geometry">
            <mxPoint x="250" y="170" as="targetPoint" />
            <Array as="points" />
            <mxPoint x="50" y="170" as="sourcePoint" />
            <mxPoint as="offset" />
          </mxGeometry>
        </mxCell>
      </root>
    </mxGraphModel>
  </diagram>
</mxfile>
